<?xml version="1.0" encoding="UTF-8"?>
<svg width="27px" height="27px" viewBox="0 0 27 27" version="1.1" xmlns="http://www.w3.org/2000/svg" xmlns:xlink="http://www.w3.org/1999/xlink">
    <!-- Generator: sketchtool 60.1 (101010) - https://sketch.com -->
    <title>51994729-739F-4007-9812-988DCA69839D</title>
    <desc>Created with sketchtool.</desc>
    <g id="Desktop-logueado" stroke="none" stroke-width="1" fill="none" fill-rule="evenodd">
        <g id="Home--opc-2" transform="translate(-1206.000000, -55.000000)" fill="#666666">
            <g id="Header">
                <g id="Group-29">
                    <g id="User-2" transform="translate(1206.000000, 55.000000)">
                        <path d="M13.632,0.39 C6.3418413,0.39 0.432,6.2998413 0.432,13.59 C0.432,20.8801587 6.3418413,26.79 13.632,26.79 C20.9221587,26.79 26.832,20.8801587 26.832,13.59 C26.832,6.2998413 20.9221587,0.39 13.632,0.39 Z M2.232,13.59 C2.2316355,8.59713786 5.48029116,4.18500293 10.2481249,2.70296594 C15.0159587,1.22092896 20.1934099,3.01388657 23.0235928,7.12712589 C25.8537756,11.2403652 25.6780556,16.7166615 22.59,20.64 C21.2146355,18.5914637 19.2190872,17.0375014 16.896,16.206 C17.8999645,15.1313419 18.4502278,13.7105449 18.432,12.24 C18.432,9.24 16.278,6.84 13.632,6.84 C10.986,6.84 8.832,9.24 8.832,12.24 C8.81708393,13.7630255 9.41361144,15.2284083 10.488,16.308 C8.14842662,17.1478304 6.17507299,18.7774386 4.908,20.916 C3.17831783,18.8669459 2.23026645,16.2714959 2.232,13.59 L2.232,13.59 Z M13.932,15.69 C13.6032979,15.6913503 13.2748759,15.7093734 12.948,15.744 C11.4878048,15.214473 10.5468888,13.790911 10.632,12.24 C10.632,10.254 11.976,8.64 13.632,8.64 C15.288,8.64 16.632,10.254 16.632,12.24 C16.7059324,13.7472733 15.8209805,15.1372249 14.424,15.708 C14.262,15.702 14.1,15.69 13.932,15.69 Z M6.24,22.29 C7.54408724,19.7440421 10.0069157,17.9931949 12.84,17.598 C13.4240902,17.712065 14.0260003,17.6977338 14.604,17.556 C17.4039225,17.9340872 19.8760322,19.5747897 21.312,22.008 C17.0806996,25.9135358 10.5962674,26.034716 6.222,22.29 L6.24,22.29 Z" id="Shape"></path>
                    </g>
                </g>
            </g>
        </g>
    </g>
</svg>