<?xml version="1.0" encoding="UTF-8"?>
<svg width="29px" height="25px" viewBox="0 0 29 25" version="1.1" xmlns="http://www.w3.org/2000/svg" xmlns:xlink="http://www.w3.org/1999/xlink">
    <!-- Generator: sketchtool 60.1 (101010) - https://sketch.com -->
    <title>0F325241-5CD3-4843-B478-E9564C763844</title>
    <desc>Created with sketchtool.</desc>
    <g id="Desktop-logueado" stroke="none" stroke-width="1" fill="none" fill-rule="evenodd">
        <g id="Home--opc-2" transform="translate(-1252.000000, -57.000000)" fill="#666666">
            <g id="Header">
                <g id="Group-29">
                    <g id="Cart" transform="translate(1252.000000, 57.000000)">
                        <path d="M10.43328,15.8496 L22.91328,15.8496 C23.6629771,15.8500528 24.3406392,15.4031886 24.63552,14.71392 L28.37952,5.97792 C28.6270247,5.39939123 28.5673154,4.73521835 28.2205935,4.21011067 C27.8738717,3.68500299 27.2865287,3.36921984 26.65728,3.3696 L6.06528,3.3696 C5.70533053,3.37424235 5.3543529,3.48256877 5.0544,3.6816 L3.8064,0.8112 C3.65796399,0.471085248 3.32261284,0.250781572 2.95152,0.2496 L1.07952,0.2496 C0.562581474,0.2496 0.14352,0.668661474 0.14352,1.1856 C0.14352,1.70253853 0.562581474,2.1216 1.07952,2.1216 L2.32752,2.1216 L8.02464,15.13824 C8.73016914,17.2492786 8.46994315,19.5639203 7.31328,21.4656 C7.31178563,22.7355811 8.08021476,23.8797377 9.25637982,24.3587887 C10.4325449,24.8378397 11.781709,24.5561771 12.6679638,23.6465582 C13.5542187,22.7369393 13.8006871,21.3809043 13.2912,20.2176 L20.0616,20.2176 C19.511138,21.4791133 19.8523505,22.9522998 20.9013784,23.8433468 C21.9504063,24.7343938 23.4593884,24.8327674 24.6152239,24.08546 C25.7710595,23.3381525 26.3006511,21.9217355 25.9186334,20.5994319 C25.5366157,19.2771284 24.3332505,18.3613681 22.95696,18.3456 L10.58304,18.3456 L10.58304,18.3456 L10.45824,18.3456 C9.76898863,18.3456 9.21024,17.7868514 9.21024,17.0976 C9.21024,16.4083486 9.76898863,15.8496 10.45824,15.8496 L10.43328,15.8496 Z M26.65728,5.2416 L22.91328,13.9776 L9.80928,13.9776 L6.06528,5.2416 L26.65728,5.2416 Z M11.68128,21.4656 C11.68128,22.1548514 11.1225314,22.7136 10.43328,22.7136 C9.74402863,22.7136 9.18528,22.1548514 9.18528,21.4656 C9.18528,20.7763486 9.74402863,20.2176 10.43328,20.2176 C11.1225314,20.2176 11.68128,20.7763486 11.68128,21.4656 Z M24.16128,21.4656 C24.16128,22.1548514 23.6025314,22.7136 22.91328,22.7136 C22.2240286,22.7136 21.66528,22.1548514 21.66528,21.4656 C21.66528,20.7763486 22.2240286,20.2176 22.91328,20.2176 C23.6025314,20.2176 24.16128,20.7763486 24.16128,21.4656 Z" id="Shape"></path>
                    </g>
                </g>
            </g>
        </g>
    </g>
</svg>