<?xml version="1.0" encoding="UTF-8"?>
<svg width="18px" height="19px" viewBox="0 0 18 19" version="1.1" xmlns="http://www.w3.org/2000/svg" xmlns:xlink="http://www.w3.org/1999/xlink">
    <!-- Generator: sketchtool 60.1 (101010) - https://sketch.com -->
    <title>77E6C8BC-12D2-4CA9-9841-070E2E30432F</title>
    <desc>Created with sketchtool.</desc>
    <g id="Desktop-logueado" stroke="none" stroke-width="1" fill="none" fill-rule="evenodd">
        <g id="Home--opc-2" transform="translate(-664.000000, -56.000000)" fill="#03487B">
            <g id="Header">
                <g id="Group-29">
                    <g id="Group" transform="translate(299.000000, 41.000000)">
                        <g id="Search-Copy" transform="translate(365.000000, 15.000000)">
                            <path d="M17.5635,17.3655 L13.4055,13.23 C16.3189301,10.2985519 16.4077068,5.59287074 13.606919,2.55361905 C10.8061312,-0.485632654 6.10887759,-0.780802082 2.94965868,1.88393039 C-0.209560234,4.54866286 -0.710553858,9.22844079 1.81299033,12.5015415 C4.33653452,15.7746421 8.98982238,16.4804949 12.3705,14.103 L16.6095,18.342 C16.8754588,18.589823 17.2899087,18.5825105 17.5469596,18.3254596 C17.8040105,18.0684087 17.811323,17.6539588 17.5635,17.388 L17.5635,17.3655 Z M1.674,7.83 C1.674,4.35060608 4.49460608,1.53 7.974,1.53 C11.4533939,1.53 14.274,4.35060608 14.274,7.83 C14.274,11.3093939 11.4533939,14.13 7.974,14.13 C4.49460608,14.13 1.674,11.3093939 1.674,7.83 Z" id="Shape"></path>
                        </g>
                    </g>
                </g>
            </g>
        </g>
    </g>
</svg>