<?xml version="1.0" encoding="UTF-8"?>
<svg width="51px" height="51px" viewBox="0 0 51 51" version="1.1" xmlns="http://www.w3.org/2000/svg" xmlns:xlink="http://www.w3.org/1999/xlink">
    <!-- Generator: sketchtool 60.1 (101010) - https://sketch.com -->
    <title>3160AEA8-7025-4607-9AFF-048584A318CF</title>
    <desc>Created with sketchtool.</desc>
    <defs>
        <polygon id="path-1" points="0.000185779732 0.189588121 24.1992 0.189588121 24.1992 7.43983918 0.000185779732 7.43983918"></polygon>
        <polygon id="path-3" points="0.211237878 0.21816 7.70354222 0.21816 7.70354222 4.2192 0.211237878 4.2192"></polygon>
    </defs>
    <g id="Desktop-logueado" stroke="none" stroke-width="1" fill="none" fill-rule="evenodd">
        <g id="Home--opc-2" transform="translate(-360.000000, -179.000000)">
            <g id="Group-16" transform="translate(360.000000, 179.000000)">
                <circle id="Oval" fill="#007EE9" cx="25.5" cy="25.5" r="25.5"></circle>
                <g id="Group-11" transform="translate(13.000000, 12.000000)">
                    <path d="M0.17988,18.043464 C0.63612,16.171944 1.05564,14.448504 1.47636,12.725064 C2.17476,9.864744 2.87436,7.004664 3.57156,4.144104 C3.81156,3.158424 4.2114,2.831304 5.23356,2.818344 C5.93508,2.809704 6.63732,2.816904 7.44996,2.816904 C7.44996,3.113064 7.4502,3.364824 7.44996,3.616584 C7.44996,7.068744 7.44804,10.521384 7.45092,13.974024 C7.45188,15.203304 7.941,15.713064 9.1554,15.720024 C11.13468,15.731784 13.11396,15.732744 15.093,15.721704 C16.22508,15.715464 16.73748,15.188424 16.73892,14.051544 C16.743,10.577304 16.74012,7.102584 16.74012,3.628344 L16.74012,2.862024 C17.71092,2.862024 18.63732,2.771544 19.53036,2.905464 C19.90332,2.961144 20.41092,3.441624 20.50668,3.818424 C21.69924,8.502264 22.82724,13.202664 23.96988,17.899224 C23.98428,17.958264 23.97156,18.023544 23.97156,18.043464 L0.17988,18.043464 Z" id="Fill-1" fill="#FFFFFF"></path>
                    <g id="Group-5" transform="translate(0.000000, 18.741840)">
                        <mask id="mask-2" fill="white">
                            <use xlink:href="#path-1"></use>
                        </mask>
                        <g id="Clip-4"></g>
                        <path d="M8.865576,0.245208 C8.865576,0.356328 8.878776,0.442728 8.863656,0.523848 C8.612616,1.877448 9.072936,2.384088 10.458456,2.346648 C11.661336,2.314248 12.866376,2.316888 14.070216,2.334168 C14.950536,2.346888 15.300456,2.032968 15.313176,1.133448 C15.317256,0.851208 15.313656,0.569208 15.313656,0.247848 C15.533016,0.226248 15.700056,0.195528 15.866856,0.195288 C18.240456,0.192408 20.613576,0.190728 22.986936,0.195048 C23.924136,0.196728 24.193656,0.470328 24.196056,1.417128 C24.200136,3.043128 24.201336,4.669368 24.193896,6.295368 C24.190296,7.144248 23.891496,7.438008 23.034696,7.438248 C15.739176,7.440408 8.443176,7.440408 1.147416,7.438008 C0.301416,7.437768 -0.010344,7.139688 0.000456,6.282648 C0.021336,4.594248 0.066216,2.906088 0.115656,1.218168 C0.132696,0.638328 0.553656,0.192648 1.077336,0.191688 C3.560616,0.186648 6.043656,0.191688 8.526936,0.196248 C8.631816,0.196488 8.736936,0.226008 8.865576,0.245208" id="Fill-3" fill="#FFFFFF" mask="url(#mask-2)"></path>
                    </g>
                    <path d="M12.12432,11.599776 C12.6936,11.599776 13.26672,11.636256 13.83024,11.579136 C14.01912,11.559936 14.18352,11.301456 14.35944,11.152176 C14.19672,11.012496 14.0376,10.756416 13.87104,10.751616 C12.68976,10.716336 11.50656,10.716096 10.32504,10.750896 C10.15584,10.755936 9.9936,11.007936 9.82824,11.145696 C10.00248,11.297136 10.16568,11.561136 10.35264,11.579136 C10.93848,11.635776 11.5332,11.600016 12.12432,11.599776 M12.12528,9.807216 C12.67344,9.807216 13.22688,9.849936 13.76784,9.786096 C13.98024,9.761136 14.16504,9.498336 14.36232,9.343776 C14.15664,9.198816 13.95528,8.936736 13.74408,8.928816 C12.6492,8.886576 11.55048,8.886816 10.4556,8.928576 C10.24152,8.936736 10.03704,9.194016 9.82824,9.336096 C10.04544,9.493776 10.24944,9.757776 10.48272,9.787056 C11.02272,9.854736 11.57688,9.808416 12.12528,9.807216 M12.10656,7.984656 C12.6552,7.984656 13.2084,8.026176 13.74984,7.964496 C13.968,7.939536 14.16024,7.688736 14.36424,7.540656 C14.16432,7.387776 13.9692,7.110576 13.76376,7.102656 C12.64656,7.058976 11.52552,7.058496 10.40832,7.103376 C10.20936,7.111296 10.02144,7.401456 9.82872,7.561296 C10.01736,7.702416 10.19616,7.945536 10.3968,7.965216 C10.96176,8.020896 11.53608,7.984656 12.10656,7.984656 M8.34576,9.980496 C8.34624,8.618496 8.358,7.256256 8.34048,5.894736 C8.33352,5.342016 8.5344,5.102016 9.11304,5.107776 C11.11176,5.128656 13.11096,5.124816 15.10968,5.110176 C15.64104,5.106096 15.86976,5.316096 15.8683268,5.849136 C15.85944,8.594736 15.85728,11.340816 15.86784,14.086656 C15.87,14.666496 15.59928,14.846976 15.05448,14.842656 C13.0776,14.825856 11.10024,14.823936 9.1236,14.843376 C8.55576,14.848896 8.33184,14.628816 8.33928,14.066256 C8.35752,12.704736 8.34528,11.342496 8.34576,9.980496" id="Fill-6" fill="#FFFFFF"></path>
                    <g id="Group-10" transform="translate(8.160000, 0.021840)">
                        <mask id="mask-4" fill="white">
                            <use xlink:href="#path-3"></use>
                        </mask>
                        <g id="Clip-9"></g>
                        <path d="M3.933144,2.7924 C4.502664,2.7924 5.076024,2.82792 5.640264,2.7732 C5.838984,2.754 6.016344,2.51328 6.203304,2.3736 C6.029304,2.21856 5.859864,1.93584 5.680584,1.92936 C4.520904,1.8888 3.358104,1.8888 2.198184,1.92912 C2.016744,1.9356 1.844424,2.2152 1.667784,2.36832 C1.853064,2.50968 2.028504,2.75352 2.226024,2.77296 C2.790264,2.82816 3.363384,2.7924 3.933144,2.7924 M7.702344,4.2192 L0.214584,4.2192 C0.214584,3.02184 0.198024,1.80648 0.238584,0.59304 C0.243144,0.46296 0.580104,0.23832 0.765384,0.2364 C2.873064,0.21048 4.981224,0.22008 7.089384,0.21888 C7.498824,0.2184 7.698744,0.43248 7.700664,0.828 C7.705944,1.94568 7.702344,3.06336 7.702344,4.2192" id="Fill-8" fill="#FFFFFF" mask="url(#mask-4)"></path>
                    </g>
                </g>
            </g>
        </g>
    </g>
</svg>