<?xml version="1.0" encoding="UTF-8"?>
<svg width="51px" height="51px" viewBox="0 0 51 51" version="1.1" xmlns="http://www.w3.org/2000/svg" xmlns:xlink="http://www.w3.org/1999/xlink">
    <!-- Generator: sketchtool 60.1 (101010) - https://sketch.com -->
    <title>18BECD24-6F00-4909-9106-2A76599F01E1</title>
    <desc>Created with sketchtool.</desc>
    <defs>
        <polygon id="path-1" points="2.28998391e-05 0.1008 26.9643568 0.1008 26.9643568 19.3620069 2.28998391e-05 19.3620069"></polygon>
        <polygon id="path-3" points="0 23.6992 26.9644 23.6992 26.9644 0.2 0 0.2"></polygon>
    </defs>
    <g id="Desktop-logueado" stroke="none" stroke-width="1" fill="none" fill-rule="evenodd">
        <g id="Home--opc-2" transform="translate(-505.000000, -179.000000)">
            <g id="Group-17" transform="translate(505.000000, 179.000000)">
                <circle id="Oval-Copy-9" fill="#007BEC" cx="25.5" cy="25.5" r="25.5"></circle>
                <g id="Group-8" transform="translate(12.000000, 14.000000)">
                    <g id="Group-3" transform="translate(0.000000, 0.099200)">
                        <mask id="mask-2" fill="white">
                            <use xlink:href="#path-1"></use>
                        </mask>
                        <g id="Clip-2"></g>
                        <path d="M13.47898,1.64252 C9.96978,1.64252 6.45978,1.67852 2.95138,1.62152 C1.84618,1.60352 1.53538,1.99732 1.54938,3.06092 C1.59938,6.94112 1.59978,10.82272 1.54938,14.70312 C1.53518,15.77672 1.87058,16.14192 2.96238,16.1357974 C9.98098,16.09672 16.99978,16.09592 24.01798,16.13492 C25.12258,16.14112 25.43718,15.74672 25.42458,14.68932 C25.37778,10.80912 25.37478,6.92752 25.42558,3.04712 C25.43978,1.96852 25.09418,1.60372 24.00678,1.62052 C20.49818,1.67492 16.98838,1.64072 13.47898,1.64252 M13.48358,0.10312 C17.11958,0.10372 20.75538,0.09812 24.39138,0.10592 C26.24938,0.10992 26.95478,0.79932 26.95798,2.62832 C26.96638,7.37972 26.96698,12.13112 26.95678,16.88252 C26.95278,18.62132 26.21138,19.35392 24.45198,19.35572 C17.13898,19.36372 9.82578,19.36412 2.51278,19.35672 C0.75918,19.35512 0.01298,18.61692 0.00878,16.88112 C-0.00242,12.12992 -0.00242,7.37832 0.00618,2.62692 C0.00938,0.80092 0.71958,0.10912 2.57598,0.10512 C6.21178,0.09692 9.84778,0.10272 13.48358,0.10312" id="Fill-1" fill="#FFFFFF" mask="url(#mask-2)"></path>
                    </g>
                    <path d="M9.07916,22.99134 C10.05796,23.12254 10.44076,22.61634 10.46976,21.73214 C10.50396,20.68554 11.01556,20.32414 12.05336,20.40754 C13.15896,20.49634 14.27976,20.38934 15.38836,20.45794 C15.71316,20.47774 16.19056,20.73234 16.30516,21.00314 C17.01616,22.68414 16.98836,22.69574 18.38756,23.23114 C17.77116,23.79994 9.62356,23.90474 8.31296,23.24034 C8.72436,23.10074 8.91196,22.96894 9.07916,22.99134 Z" id="Fill-4" fill="#FFFFFF"></path>
                    <mask id="mask-4" fill="white">
                        <use xlink:href="#path-3"></use>
                    </mask>
                    <g id="Clip-7"></g>
                    <polygon id="Fill-6" fill="#FFFFFF" mask="url(#mask-4)" points="2.5718 15.165 24.3558 15.165 24.3558 2.7898 2.5718 2.7898"></polygon>
                </g>
            </g>
        </g>
    </g>
</svg>