<?xml version="1.0" encoding="UTF-8"?>
<svg width="51px" height="51px" viewBox="0 0 51 51" version="1.1" xmlns="http://www.w3.org/2000/svg" xmlns:xlink="http://www.w3.org/1999/xlink">
    <!-- Generator: sketchtool 60.1 (101010) - https://sketch.com -->
    <title>5630662C-4306-43EC-9E30-136E1344AAE1</title>
    <desc>Created with sketchtool.</desc>
    <defs>
        <polygon id="path-1" points="8.05249934e-05 0.0896996629 30.73437 0.0896996629 30.73437 12.5411102 8.05249934e-05 12.5411102"></polygon>
        <polygon id="path-3" points="0.0201032525 0.0602789705 22.6273463 0.0602789705 22.6273463 11.61 0.0201032525 11.61"></polygon>
    </defs>
    <g id="Desktop-logueado" stroke="none" stroke-width="1" fill="none" fill-rule="evenodd">
        <g id="Home--opc-2" transform="translate(-822.000000, -179.000000)">
            <g id="Group-19" transform="translate(822.000000, 179.000000)">
                <circle id="Oval-Copy-10" fill="#0074F4" cx="25.5" cy="25.5" r="25.5"></circle>
                <g id="Group-15" transform="translate(10.000000, 12.000000)">
                    <g id="Group-3" transform="translate(0.000000, 6.950880)">
                        <mask id="mask-2" fill="white">
                            <use xlink:href="#path-1"></use>
                        </mask>
                        <g id="Clip-2"></g>
                        <path d="M6.014871,4.170582 C6.021891,3.958632 6.029451,3.746412 6.036471,3.534462 C5.467041,3.100032 4.945671,2.412342 4.316031,2.292462 C3.424761,2.122362 2.791341,2.793312 2.759751,3.734532 C2.728701,4.673592 3.305691,5.391522 4.213701,5.281902 C4.849821,5.204952 5.416821,4.561002 6.014871,4.170582 M25.934121,12.516822 C26.126091,11.646072 26.180631,11.004822 26.409591,10.433502 C27.013581,8.925552 26.419851,7.934922 24.789051,7.931682 C18.489411,7.918452 12.189771,7.917372 5.890131,7.933302 C4.351941,7.937082 3.759561,8.931492 4.303341,10.374102 C4.534731,10.987812 4.601961,11.663622 4.785831,12.504132 C3.359421,12.504132 2.225151,12.617532 1.135431,12.447162 C0.713151,12.381012 0.087831,11.682252 0.073521,11.254572 C-0.020709,8.422812 -0.016119,5.585652 0.041391,2.752002 C0.076761,1.021572 1.250991,0.095472 3.256281,0.093582 C10.725831,0.086562 18.195381,0.091152 25.664931,0.091422 C30.435561,0.091422 30.725541,0.378972 30.725541,5.111262 C30.725271,7.091172 30.703131,9.071352 30.734181,11.050722 C30.750111,12.078342 30.310011,12.546252 29.284551,12.522222 C28.300941,12.498732 27.316791,12.516822 25.934121,12.516822" id="Fill-1" fill="#FFFFFF" mask="url(#mask-2)"></path>
                    </g>
                    <g id="Group-6" transform="translate(4.050000, 15.860880)">
                        <mask id="mask-4" fill="white">
                            <use xlink:href="#path-3"></use>
                        </mask>
                        <g id="Clip-5"></g>
                        <path d="M11.318616,10.737603 C14.333436,10.737603 17.348526,10.717623 20.363076,10.748943 C21.354246,10.759203 21.758976,10.440873 21.585096,9.393813 C21.180096,6.953823 20.828016,4.504653 20.481876,2.055213 C20.368746,1.251963 20.005326,0.886923 19.156986,0.890140717 C13.937346,0.912033 8.717706,0.911763 3.498066,0.890140717 C2.655666,0.886923 2.279286,1.236843 2.165076,2.046033 C1.826226,4.450923 1.493586,6.858513 1.075626,9.250173 C0.870966,10.422513 1.284876,10.771353 2.409156,10.754343 C5.378346,10.709523 8.348616,10.738953 11.318616,10.737603 M11.223036,11.604573 C8.168796,11.604843 5.114556,11.618343 2.060856,11.599713 C0.310986,11.588913 -0.182844,10.971693 0.090666,9.248823 C0.470286,6.855003 0.841266,4.459563 1.223586,2.066013 C1.502226,0.322083 1.803006,0.066123 3.608766,0.064503 C8.773866,0.059373 13.938696,0.058293 19.103796,0.064773 C20.813436,0.066933 21.147696,0.352323 21.411216,1.999053 C21.801366,4.436883 22.181526,6.876333 22.563036,9.315513 C22.821156,10.963593 22.325436,11.585943 20.654406,11.598093 C17.510796,11.620773 14.366646,11.604573 11.223036,11.604573" id="Fill-4" fill="#FFFFFF" mask="url(#mask-4)"></path>
                    </g>
                    <path d="M14.157045,0.026676 C16.044615,0.025326 17.937045,-0.052434 19.817595,0.064476 C20.546055,0.109566 21.315555,0.491886 21.942495,0.907146 C22.605075,1.346166 23.088645,2.045466 23.706405,2.563866 C24.897375,3.563946 24.360345,4.884786 24.407055,6.093036 C24.411375,6.199146 24.033915,6.447546 23.946975,6.404076 C23.754195,6.307956 23.482305,6.043626 23.506605,5.889726 C23.765805,4.242726 22.781655,4.112046 21.573675,4.270806 C20.480445,4.414446 20.177235,3.927096 20.206665,2.887326 C20.261745,0.950616 20.499345,1.028646 18.310455,1.027836 C15.119325,1.026756 11.927655,1.065906 8.737605,1.010286 C7.609545,0.990576 7.199685,1.399626 7.263675,2.503116 C7.325775,3.577716 7.297695,4.660686 7.249095,5.736906 C7.238295,5.973156 6.972885,6.198066 6.824655,6.428106 C6.645915,6.185106 6.322725,5.948046 6.311925,5.697756 C6.258735,4.441716 6.258735,3.181086 6.294645,1.923696 C6.332445,0.608796 6.890535,0.056106 8.224335,0.035856 C10.201545,0.005346 12.179565,0.028026 14.157045,0.026676" id="Fill-7" fill="#FFFFFF"></path>
                    <path d="M8.019297,24.040854 C12.930327,23.874804 17.840817,23.961204 22.751307,23.982804 C22.751037,24.219324 22.751037,24.455844 22.751037,24.692364 C17.840817,24.887034 12.929517,24.754464 8.018487,24.786324 C8.018757,24.537654 8.019027,24.289254 8.019297,24.040854" id="Fill-9" fill="#FFFFFF"></path>
                    <path d="M8.269776,22.012182 C9.409446,21.172482 21.344796,21.175452 22.468266,22.012182 L8.269776,22.012182 Z" id="Fill-11" fill="#FFFFFF"></path>
                    <path d="M21.661668,19.440324 C17.476938,19.639044 13.291128,19.631214 9.104508,19.482174 C9.860508,18.655434 20.643228,18.597924 21.661668,19.440324" id="Fill-13" fill="#FFFFFF"></path>
                </g>
            </g>
        </g>
    </g>
</svg>