<?xml version="1.0" encoding="UTF-8"?>
<svg width="51px" height="51px" viewBox="0 0 51 51" version="1.1" xmlns="http://www.w3.org/2000/svg" xmlns:xlink="http://www.w3.org/1999/xlink">
    <!-- Generator: sketchtool 60.1 (101010) - https://sketch.com -->
    <title>3E494ECE-FE9B-452A-8403-AB7F076A2DCE</title>
    <desc>Created with sketchtool.</desc>
    <defs>
        <polygon id="path-1" points="0 0.03312 35.3611442 0.03312 35.3611442 29.7 0 29.7"></polygon>
        <polygon id="path-3" points="0 29.84688 35.36118 29.84688 35.36118 0.18 0 0.18"></polygon>
    </defs>
    <g id="Desktop-logueado" stroke="none" stroke-width="1" fill="none" fill-rule="evenodd">
        <g id="Home--opc-2" transform="translate(-669.000000, -179.000000)">
            <g id="Group-18" transform="translate(669.000000, 179.000000)">
                <circle id="Oval-Copy-8" fill="#0078F0" cx="25.5" cy="25.5" r="25.5"></circle>
                <g id="Group-24" transform="translate(7.000000, 7.000000)">
                    <g id="Group-3" transform="translate(0.000000, 0.146880)">
                        <mask id="mask-2" fill="white">
                            <use xlink:href="#path-1"></use>
                        </mask>
                        <g id="Clip-2"></g>
                        <path d="M17.580564,28.466622 C22.710204,28.466622 27.840204,28.454022 32.969844,28.4790891 C33.822504,28.483362 34.140384,28.191222 34.1324346,27.326862 C34.100244,23.937462 34.121664,20.547522 34.119864,17.157942 C34.119144,15.900282 34.064604,15.848082 32.789304,15.847902 C22.709844,15.847362 12.630204,15.847722 2.550564,15.847902 C2.370564,15.847902 2.136384,15.776982 2.021364,15.863742 C1.732104,16.081182 1.305324,16.349022 1.273284,16.634682 C1.140804,17.819262 1.083564,19.018242 1.091844,20.211282 C1.108584,22.548042 1.194444,24.884262 1.238364,27.220842 C1.260144,28.376982 1.322964,28.462842 2.461104,28.463562 C7.500924,28.466802 12.540744,28.465002 17.580564,28.466622 M10.461564,14.617242 C10.927224,14.617242 11.278764,14.617242 11.630124,14.617062 C18.738684,14.617062 25.846884,14.616882 32.955264,14.617062 C34.773624,14.617062 35.357724,15.208902 35.358444,17.051922 C35.359524,20.462922 35.360424,23.873922 35.3611442,27.285102 C35.361504,29.093742 34.750764,29.699622 32.923044,29.7000807 C22.755384,29.7000807 12.587904,29.7000807 2.420244,29.699262 C0.591804,29.699082 -0.012456,29.105802 -4.83838377e-05,27.275382 C0.017964,24.697782 0.071784,22.120362 0.086724,19.542762 C0.092304,18.586422 0.004104,17.629722 0.008244,16.673382 C0.014184,15.308802 0.700524,14.626962 2.057904,14.619942 C4.394124,14.607882 6.730704,14.616702 9.229104,14.616702 C9.229104,13.795362 9.227664,13.031442 9.229284,12.267702 C9.233244,10.340082 9.883944,9.694422 11.836044,9.694062 C18.674424,9.692442 25.512804,9.693882 32.351364,9.693342 C33.914124,9.693162 34.018164,9.585342 34.019424,7.995942 C34.021224,5.769702 34.021224,5.769702 31.804704,5.769702 C27.725724,5.769522 23.646744,5.771322 19.567764,5.768622 C17.816004,5.767542 17.125344,5.071662 17.119404,3.313062 C17.116884,2.473182 17.075844,1.629342 17.148384,0.795762 C17.171784,0.527742 17.502444,0.286542 17.692704,0.033102 C17.911764,0.292662 18.291204,0.535842 18.319464,0.814662 C18.403884,1.645902 18.343404,2.491182 18.352944,3.330882 C18.364284,4.341762 18.555084,4.536162 19.576404,4.537422 C23.955264,4.542642 28.334124,4.538142 32.713164,4.540842 C34.537464,4.542102 35.249004,5.267502 35.253144,7.117362 C35.254224,7.627302 35.262144,8.137242 35.250804,8.647002 C35.217504,10.125882 34.440984,10.908702 32.945904,10.926162 C31.266504,10.945602 29.586744,10.930662 27.907164,10.930662 C22.568544,10.930662 17.229744,10.929402 11.891124,10.931562 C10.583244,10.932102 10.464084,11.057562 10.461744,12.385422 C10.460484,13.073742 10.461564,13.762062 10.461564,14.617242" id="Fill-1" fill="#FFFFFF" mask="url(#mask-2)"></path>
                    </g>
                    <mask id="mask-4" fill="white">
                        <use xlink:href="#path-3"></use>
                    </mask>
                    <g id="Clip-5"></g>
                    <path d="M2.59308,27.21762 L32.73876,27.21762 L32.73876,17.3943 L2.59308,17.3943 L2.59308,27.21762 Z M17.5806,28.61262 C12.54078,28.6119 7.50096,28.6137 2.46114,28.61046 C1.323,28.60974 1.26018,28.52388 1.2384,27.36774 C1.19448,25.03116 1.10862,22.69494 1.09188,20.35818 C1.08342,19.16514 1.14084,17.96616 1.27332,16.7814 C1.30536,16.49592 1.73214,16.22808 2.02122,16.01064 C2.13642,15.92388 2.3706,15.99462 2.5506,15.99462 C12.63024,15.99444 22.70988,15.99408 32.78934,15.9948 C34.06464,15.99498 34.11918,16.047 34.1199,17.30484 C34.12152,20.69442 34.10028,24.08436 34.1324706,27.47376 C34.14042,28.33812 33.82254,28.63026 32.96988,28.6259871 C27.84024,28.60092 22.71024,28.61352 17.5806,28.61262 L17.5806,28.61262 Z" id="Fill-4" fill="#0074F4" mask="url(#mask-4)"></path>
                    <path d="M14.549922,19.66518 L14.549922,19.67076 C14.846562,19.67076 15.175602,19.75104 15.431022,19.64808 C15.684642,19.54584 16.027722,19.26306 16.031862,19.05336 C16.036362,18.82944 15.712362,18.43254 15.492222,18.40266 C14.851962,18.3159 14.183442,18.31734 13.544082,18.40896 C13.331142,18.43956 13.056282,18.83628 13.030002,19.08846 C13.011822,19.26 13.346262,19.56474 13.578822,19.6416 C13.872942,19.7388 14.223762,19.66518 14.549922,19.66518 L14.549922,19.66518 Z M23.670522,19.66914 L23.670522,19.67922 C23.937642,19.67922 24.244182,19.7622 24.462702,19.65888 C24.760962,19.51794 24.992082,19.23498 25.251822,19.01304 C25.013682,18.79506 24.798762,18.432 24.532362,18.38916 C23.954202,18.29592 23.339682,18.30456 22.760982,18.39978 C22.530582,18.43776 22.200822,18.81378 22.2002814,19.03644 C22.199742,19.24686 22.537242,19.5408 22.789422,19.6461 C23.042502,19.75158 23.373522,19.66914 23.670522,19.66914 L23.670522,19.66914 Z M19.120302,19.67454 C19.417662,19.67454 19.745802,19.75338 20.003562,19.6524 C20.263122,19.55034 20.614482,19.27962 20.627622,19.0647 C20.640942,18.84564 20.314782,18.43524 20.096082,18.40482 C19.455102,18.31572 18.785502,18.31644 18.144702,18.40608 C17.926902,18.4365 17.602542,18.84618 17.615862,19.06488 C17.628822,19.27962 17.978382,19.55052 18.237042,19.65204 C18.494802,19.75302 18.822942,19.67418 19.120302,19.67454 L19.120302,19.67454 Z M5.503302,18.35388 C5.189382,18.35388 4.916142,18.27864 4.722102,18.37062 C4.392522,18.52668 4.112622,18.78786 3.811842,19.00494 C4.099482,19.23066 4.361202,19.51218 4.684122,19.6623 C4.904082,19.76454 5.212962,19.7091 5.476302,19.67742 C6.012522,19.61298 6.866442,19.94958 6.87041522,19.0449 C6.874362,18.08766 5.987682,18.43866 5.503302,18.35388 L5.503302,18.35388 Z M9.990702,19.67598 L9.990702,19.68012 C10.228302,19.68012 10.504602,19.75734 10.694862,19.6623 C10.995822,19.51182 11.239002,19.24614 11.506842,19.02924 C11.243142,18.80514 11.006802,18.44766 10.709622,18.38628 C10.196802,18.28026 9.632142,18.2871 9.117342,18.38862 C8.849142,18.44154 8.640882,18.79812 8.405442,19.01736 C8.636742,19.23678 8.834562,19.53396 9.109422,19.65312 C9.359622,19.7613 9.693522,19.67598 9.990702,19.67598 L9.990702,19.67598 Z M5.526342,23.52708 C5.153562,23.52708 4.825782,23.44788 4.568022,23.54832 C4.283982,23.65902 4.064022,23.93496 3.816342,24.1389 C4.066182,24.37452 4.281102,24.68466 4.576482,24.82272 C4.820382,24.93684 5.160222,24.8616 5.456142,24.84558 C6.022962,24.81462 6.870942,25.14798 6.882102,24.18894 C6.894342,23.16258 5.978502,23.65686 5.526342,23.52708 L5.526342,23.52708 Z M27.633402,22.185 C27.896022,22.21866 28.208862,22.35744 28.409922,22.26168 C28.742922,22.10328 29.003742,21.7935 29.294982,21.54762 C29.034162,21.32676 28.803582,21.0357 28.503342,20.90682 C28.251882,20.799 27.917982,20.86128 27.623142,20.88288 C27.069822,20.9232 26.231022,20.65248 26.204202,21.50802 C26.173962,22.47012 27.070002,22.12524 27.633402,22.185 L27.633402,22.185 Z M31.408182,23.60124 C31.408182,23.48226 31.451562,23.33808 31.400262,23.24844 C31.227102,22.9464 31.020462,22.6638 30.826602,22.374 C30.581442,22.61538 30.333942,22.85424 30.092202,23.09868 C29.944962,23.24736 29.781522,23.38866 29.671002,23.562 C29.539422,23.7681 29.348622,24.02388 29.383002,24.22368 C29.418822,24.4332 29.657142,24.696 29.866482,24.77304 C30.925422,25.1622 31.408902,24.77808 31.408182,23.60124 L31.408182,23.60124 Z M10.035882,23.5341 C9.709002,23.5341 9.368082,23.4441 9.120402,23.55768 C8.832222,23.6898 8.625942,24.0003 8.384202,24.2334 C8.648622,24.4467 8.885682,24.72318 9.186282,24.85296 C9.410022,24.94962 9.716202,24.84342 9.985122,24.85098 C10.600902,24.86808 11.449242,25.06626 11.458242,24.17886 C11.467602,23.25726 10.617822,23.48982 10.035882,23.5341 L10.035882,23.5341 Z M9.905022,20.8998 C9.372402,21.01554 8.461782,20.65644 8.449542,21.57588 C8.436222,22.58136 9.381042,22.25322 9.968562,22.26672 C10.542042,22.27986 11.443842,22.53384 11.456082,21.62916 C11.469762,20.63754 10.520262,21.01374 9.905022,20.8998 L9.905022,20.8998 Z M23.550822,22.28094 C23.880222,22.28094 24.154722,22.35708 24.347682,22.26402 C24.675642,22.10526 24.952302,21.84012 25.250382,21.61944 C24.963642,21.38742 24.701022,21.10896 24.380442,20.94102 C24.193602,20.84292 23.911902,20.8998 23.676822,20.92536 C23.104962,20.98728 22.216302,20.66094 22.196502,21.58632 C22.176342,22.53402 23.076522,22.20174 23.550822,22.28094 L23.550822,22.28094 Z M5.367762,20.90574 C4.790142,21.02148 3.836322,20.62962 3.858822,21.63564 C3.879162,22.53798 4.776822,22.28274 5.349762,22.26852 C5.936382,22.25394 6.881382,22.57164 6.862122,21.56994 C6.844302,20.6496 5.934582,21.01464 5.367762,20.90574 L5.367762,20.90574 Z M19.027602,20.87676 C18.896562,20.88738 18.515322,20.84094 18.203562,20.96676 C17.949222,21.06936 17.616042,21.37734 17.6151401,21.59532 C17.614242,21.81708 17.938782,22.1418 18.190602,22.23702 C18.502542,22.35492 18.889002,22.3164 19.238382,22.28634 C19.790622,22.23846 20.628162,22.48218 20.635542,21.60936 C20.642922,20.7333 19.805922,20.98062 19.027602,20.87676 L19.027602,20.87676 Z M14.480982,22.25736 C14.480982,22.26456 14.481162,22.27176 14.481162,22.27896 C14.749722,22.27896 15.058782,22.3632 15.277302,22.25844 C15.579882,22.11372 15.814062,21.82644 16.077582,21.60018 C15.813342,21.37518 15.573042,21.00456 15.279462,20.95596 C14.700042,20.85984 14.081202,20.88306 13.499982,20.98188 C13.294242,21.01698 13.035402,21.40722 13.015782,21.65256 C13.000842,21.84012 13.288842,22.15746 13.505742,22.23234 C13.798782,22.33332 14.153022,22.25736 14.480982,22.25736 L14.480982,22.25736 Z M29.985102,19.68228 C30.046662,20.00988 30.050262,20.28654 30.152502,20.52018 C30.357162,20.98818 31.077522,21.07764 31.217742,20.62998 C31.377222,20.12094 31.415382,19.48896 31.251042,18.99504 C31.152042,18.69786 30.581802,18.42588 30.196602,18.38286 C29.370402,18.29052 28.526562,18.36 27.690282,18.351 C27.190422,18.34578 26.735742,18.46728 26.751402,19.04724 C26.767422,19.64268 27.258822,19.69038 27.738882,19.68444 C28.481202,19.6758 29.223702,19.68228 29.985102,19.68228 L29.985102,19.68228 Z M25.008642,24.85296 L25.008642,24.8472 C25.756722,24.8472 26.512722,24.90948 27.248922,24.8157 C27.533322,24.77952 27.772722,24.38928 28.032462,24.1605 C27.788562,23.94972 27.553662,23.57046 27.298782,23.55624 C25.844022,23.47524 24.383322,23.44428 22.927842,23.49144 C22.665402,23.4999 22.417182,23.9508 22.162482,24.1974 C22.452822,24.41592 22.721562,24.77502 23.038182,24.82344 C23.681322,24.92208 24.350202,24.85296 25.008642,24.85296 L25.008642,24.85296 Z M16.762122,24.84216 L16.762122,24.84486 C17.771202,24.84486 18.784602,24.89706 19.786842,24.8139 C20.096262,24.78798 20.374902,24.3927 20.667582,24.16644 C20.364822,23.95386 20.066562,23.56596 19.758222,23.5575 C17.747802,23.50242 15.735042,23.53608 13.723002,23.52546 C13.256442,23.5233 12.887622,23.69088 13.008402,24.17058 C13.075722,24.4377 13.462002,24.79194 13.726782,24.81174 C14.733702,24.88698 15.749622,24.84216 16.762122,24.84216 L16.762122,24.84216 Z M2.593062,27.21762 L32.738742,27.21762 L32.738742,17.3943 L2.593062,17.3943 L2.593062,27.21762 Z" id="Fill-6" fill="#FFFFFF" mask="url(#mask-4)"></path>
                    <path d="M16.76214,24.842106 C15.74964,24.842106 14.73354,24.886926 13.7268,24.811686 C13.46202,24.792066 13.07574,24.437646 13.00842,24.170706 C12.88764,23.690826 13.25646,23.523246 13.72302,23.525586 C15.73506,23.536026 17.74782,23.502546 19.75824,23.557446 C20.06658,23.565906 20.36484,23.953806 20.6676,24.166386 C20.37492,24.392646 20.09628,24.787926 19.78686,24.813846 C18.78462,24.897186 17.77122,24.844986 16.76214,24.844986 L16.76214,24.842106 Z" id="Fill-7" fill="#0074F4" mask="url(#mask-4)"></path>
                    <path d="M25.008552,24.853014 C24.350292,24.853014 23.681412,24.922134 23.038272,24.823494 C22.721652,24.774894 22.452912,24.415794 22.162392,24.197274 C22.417272,23.950674 22.665312,23.499774 22.927752,23.491494 C24.383232,23.444334 25.844112,23.475294 27.298872,23.556294 C27.553752,23.570514 27.788472,23.949594 28.032552,24.160374 C27.772632,24.389334 27.533232,24.779574 27.248832,24.815754 C26.512632,24.909354 25.756632,24.847254 25.008552,24.847254 L25.008552,24.853014 Z" id="Fill-8" fill="#0074F4" mask="url(#mask-4)"></path>
                    <path d="M27.738882,19.684566 C27.258822,19.690326 26.767422,19.642626 26.751402,19.047366 C26.735742,18.467226 27.190422,18.345726 27.690282,18.350946 C28.526562,18.359946 29.370402,18.290646 30.196602,18.382806 C30.581802,18.426006 31.152042,18.697806 31.251042,18.995166 C31.415382,19.488906 31.377222,20.121066 31.217742,20.630106 C31.077522,21.077586 30.357162,20.988126 30.152502,20.520126 C30.050262,20.286486 30.046662,20.009826 29.985102,19.682226 C29.223882,19.682226 28.481382,19.675746 27.738882,19.684566 Z" id="Fill-9" fill="#0074F4" mask="url(#mask-4)"></path>
                    <path d="M13.505778,22.232214 C13.288878,22.157334 13.000698,21.840174 13.015638,21.652614 C13.035438,21.407094 13.294278,21.016854 13.500018,20.981934 C14.081238,20.882934 14.700078,20.859714 15.279498,20.956014 C15.572898,21.004614 15.813198,21.375234 16.077618,21.600234 C15.814098,21.826314 15.579738,22.113594 15.277338,22.258494 C15.058818,22.363254 14.749758,22.278834 14.481198,22.278834 C14.481198,22.271814 14.481018,22.264614 14.481018,22.257414 C14.153058,22.257414 13.798818,22.333374 13.505778,22.232214 Z" id="Fill-10" fill="#0074F4" mask="url(#mask-4)"></path>
                    <path d="M20.635542,21.609252 C20.628162,22.482252 19.790622,22.238352 19.238382,22.286232 C18.889002,22.316472 18.502542,22.354992 18.190602,22.237092 C17.938782,22.141692 17.614242,21.817152 17.6151383,21.595212 C17.616042,21.377232 17.949222,21.069252 18.203562,20.966832 C18.515322,20.841012 18.896562,20.887452 19.027602,20.876832 C19.805922,20.980512 20.642922,20.733192 20.635542,21.609252 Z" id="Fill-11" fill="#0074F4" mask="url(#mask-4)"></path>
                    <path d="M5.367816,20.905668 C5.934456,21.014568 6.844356,20.649528 6.862176,21.569868 C6.881436,22.571748 5.936436,22.253868 5.349636,22.268448 C4.776876,22.282668 3.879036,22.537908 3.858876,21.635748 C3.836376,20.629728 4.790196,21.021588 5.367816,20.905668" id="Fill-12" fill="#0074F4" mask="url(#mask-4)"></path>
                    <path d="M22.196664,21.586356 C22.216284,20.660976 23.104944,20.987316 23.676804,20.925396 C23.911884,20.899836 24.193584,20.842956 24.380424,20.941056 C24.701004,21.108996 24.963624,21.387456 25.250364,21.619476 C24.952284,21.840156 24.675624,22.105116 24.347664,22.263876 C24.154704,22.357116 23.880204,22.280976 23.550804,22.280976 C23.076504,22.201776 22.176324,22.534056 22.196664,21.586356 Z" id="Fill-13" fill="#0074F4" mask="url(#mask-4)"></path>
                    <path d="M9.905076,20.899854 C10.520316,21.013794 11.469636,20.637594 11.456136,21.629214 C11.443896,22.533714 10.542096,22.279914 9.968616,22.266774 C9.381096,22.253274 8.436276,22.581414 8.449596,21.575934 C8.461656,20.656314 9.372456,21.015594 9.905076,20.899854" id="Fill-14" fill="#0074F4" mask="url(#mask-4)"></path>
                    <path d="M11.458224,24.178878 C11.449404,25.066278 10.600884,24.868098 9.985104,24.850818 C9.716364,24.843258 9.410004,24.949638 9.186264,24.852978 C8.885664,24.723018 8.648604,24.446718 8.384184,24.233418 C8.625924,24.000318 8.832204,23.689818 9.120384,23.557698 C9.368064,23.444118 9.709164,23.534118 10.035864,23.534118 C10.617804,23.489838 11.467584,23.257278 11.458224,24.178878 Z" id="Fill-15" fill="#0074F4" mask="url(#mask-4)"></path>
                    <path d="M31.40892,23.601276 C31.40892,24.778116 30.92526,25.162236 29.8665,24.773076 C29.65716,24.696036 29.41884,24.433236 29.38302,24.223716 C29.34864,24.023916 29.53944,23.768136 29.67102,23.562036 C29.78154,23.388516 29.94498,23.247396 30.09222,23.098716 C30.33396,22.854276 30.58146,22.615236 30.82662,22.374036 C31.02048,22.663836 31.22712,22.946436 31.40028,23.248476 C31.45158,23.338116 31.4082,23.482296 31.40892,23.601276" id="Fill-16" fill="#0074F4" mask="url(#mask-4)"></path>
                    <path d="M27.63333,22.185 C27.06993,22.12524 26.17407,22.47012 26.20431,21.50802 C26.23095,20.65248 27.06975,20.9232 27.62307,20.88288 C27.91791,20.86128 28.25199,20.799 28.50327,20.90682 C28.80351,21.0357 29.03409,21.32676 29.29491,21.54762 C29.00367,21.7935 28.74285,22.10328 28.40985,22.26168 C28.20879,22.35744 27.89595,22.21866 27.63333,22.185" id="Fill-17" fill="#0074F4" mask="url(#mask-4)"></path>
                    <path d="M5.526378,23.52708 C5.978538,23.65686 6.894378,23.16258 6.882138,24.18894 C6.870978,25.14798 6.022998,24.81462 5.456178,24.84558 C5.160258,24.8616 4.820418,24.93684 4.576518,24.82272 C4.281138,24.68466 4.066218,24.37452 3.816378,24.1389 C4.064058,23.93496 4.284018,23.65902 4.568058,23.54832 C4.825638,23.44788 5.153598,23.52708 5.526378,23.52708" id="Fill-18" fill="#0074F4" mask="url(#mask-4)"></path>
                    <path d="M9.990684,19.67589 C9.693684,19.67589 9.359604,19.76139 9.109404,19.65303 C8.834544,19.53405 8.636904,19.23687 8.405424,19.01745 C8.640864,18.79803 8.849124,18.44163 9.117324,18.38871 C9.632124,18.28701 10.196964,18.28017 10.709604,18.38619 C11.006964,18.44775 11.243124,18.80505 11.506824,19.02915 C11.239164,19.24605 10.995804,19.51191 10.694844,19.66239 C10.504584,19.75725 10.228284,19.68003 9.990684,19.68003 L9.990684,19.67589 Z" id="Fill-19" fill="#0074F4" mask="url(#mask-4)"></path>
                    <path d="M5.503338,18.353844 C5.987538,18.438624 6.874398,18.087624 6.87045122,19.044864 C6.866478,19.949544 6.012558,19.612944 5.476338,19.677564 C5.212998,19.709064 4.904118,19.764504 4.684158,19.662444 C4.361238,19.512324 4.099518,19.230624 3.811878,19.004904 C4.112478,18.787824 4.392558,18.526644 4.722138,18.370584 C4.916178,18.278604 5.189418,18.353844 5.503338,18.353844" id="Fill-20" fill="#0074F4" mask="url(#mask-4)"></path>
                    <path d="M19.120248,19.674306 C18.823068,19.674126 18.494748,19.752966 18.237168,19.651986 C17.978328,19.550646 17.628948,19.279746 17.615988,19.064826 C17.602488,18.846126 17.926848,18.436446 18.144648,18.406026 C18.785628,18.316386 19.455048,18.315666 20.096208,18.404766 C20.314908,18.435186 20.640888,18.845586 20.627568,19.064646 C20.614608,19.279746 20.263248,19.550466 20.003508,19.652346 C19.745928,19.753326 19.417608,19.674486 19.120248,19.674306" id="Fill-21" fill="#0074F4" mask="url(#mask-4)"></path>
                    <path d="M23.670504,19.669212 C23.373684,19.669212 23.042484,19.751652 22.789404,19.645992 C22.537224,19.540692 22.199724,19.246752 22.2002634,19.036332 C22.200804,18.813672 22.530564,18.437652 22.760964,18.399672 C23.339664,18.304632 23.954184,18.295812 24.532344,18.389232 C24.798924,18.432072 25.013664,18.795132 25.251804,19.012932 C24.992064,19.235052 24.760944,19.517832 24.462684,19.658772 C24.244344,19.762272 23.937624,19.679292 23.670504,19.679292 L23.670504,19.669212 Z" id="Fill-22" fill="#0074F4" mask="url(#mask-4)"></path>
                    <path d="M13.578822,19.6416 C13.346262,19.56474 13.011822,19.26 13.030002,19.08846 C13.056282,18.83628 13.331142,18.43956 13.544082,18.40896 C14.183442,18.31734 14.851962,18.3159 15.492222,18.40266 C15.712362,18.43254 16.036362,18.82944 16.031862,19.05336 C16.027722,19.26306 15.684642,19.54584 15.431022,19.64808 C15.175602,19.75104 14.846562,19.67076 14.549922,19.67076 C14.223762,19.66518 13.872942,19.7388 13.578822,19.6416 Z" id="Fill-23" fill="#0074F4" mask="url(#mask-4)"></path>
                </g>
            </g>
        </g>
    </g>
</svg>