<?xml version="1.0" encoding="UTF-8"?>
<svg width="51px" height="51px" viewBox="0 0 51 51" version="1.1" xmlns="http://www.w3.org/2000/svg" xmlns:xlink="http://www.w3.org/1999/xlink">
    <!-- Generator: sketchtool 60.1 (101010) - https://sketch.com -->
    <title>09536DAF-6888-4446-B1EF-B094FDB5060F</title>
    <desc>Created with sketchtool.</desc>
    <g id="Desktop-logueado" stroke="none" stroke-width="1" fill="none" fill-rule="evenodd">
        <g id="Home--opc-2" transform="translate(-995.000000, -179.000000)">
            <g id="Group-20" transform="translate(995.000000, 179.000000)">
                <circle id="Oval-Copy-11" fill="#0070F8" cx="25.5" cy="25.5" r="25.5"></circle>
                <path d="M31.552451,25.9948848 C31.552451,24.1837687 31.5538793,22.3724145 31.5517368,20.5612984 C31.5507845,19.7870445 31.1979743,19.4387255 30.4154593,19.4382493 C26.8040349,19.4370589 23.1926105,19.4370589 19.5811861,19.4382493 C18.7712938,19.4384874 18.4375286,19.7741879 18.4372906,20.5877259 C18.4365764,24.1994824 18.4365764,27.8112388 18.4375286,31.4227572 C18.4377667,32.2289145 18.7746267,32.561758 19.5914228,32.5619961 C23.1897537,32.5629484 26.7883227,32.5629484 30.3868917,32.5619961 C31.2146387,32.561758 31.5517368,32.2227243 31.5522129,31.3901395 C31.5536413,29.5916419 31.552689,27.7933824 31.552451,25.9948848 M30.6154327,37.2720408 L28.1124323,37.2720408 L28.1124323,38.2370011 C28.1124323,38.8155488 28.1164794,39.3940965 28.1110039,39.9726441 C28.1052904,40.6035706 27.72915,41.005697 27.1630348,40.9987925 C26.6162027,40.991888 26.2448236,40.587857 26.2417287,39.980501 C26.2372055,39.0943469 26.2407765,38.2079547 26.2407765,37.2896591 L23.7482509,37.2896591 C23.7482509,38.1984313 23.7530121,39.0950611 23.7463464,39.991691 C23.7420612,40.5345258 23.4366256,40.9116532 22.9643075,40.9859359 C22.3551028,41.0814081 21.8758808,40.6609492 21.8663583,40.0009763 C21.8556454,39.2426741 21.8635015,38.4836577 21.8630254,37.7253555 L21.8630254,37.2829927 L19.3743088,37.2829927 L19.3743088,38.7429327 C19.3740707,39.1800576 19.3835933,39.6176587 19.3704998,40.0543075 C19.3538353,40.6209509 18.9515079,41.0090302 18.4141984,40.9992687 C17.8940295,40.9895072 17.5112233,40.6059515 17.502653,40.0533551 C17.491464,39.2821963 17.4995582,38.5103232 17.4993201,37.7389264 L17.4993201,37.2582318 C16.9005902,37.2582318 16.326857,37.2834689 15.7569328,37.2487084 C15.4186445,37.2277569 15.0560736,37.1732353 14.7573038,37.0260985 C14.0919162,36.698731 13.7614839,36.1178025 13.7479143,35.3740235 C13.7369634,34.7704768 13.7457717,34.1669302 13.7457717,33.4991005 L13.3196379,33.4991005 C12.5483119,33.4991005 11.776986,33.5041003 11.0054219,33.497672 C10.4033591,33.492196 10.0031743,33.1114973 10.0034123,32.5624723 C10.0038885,32.0141614 10.406454,31.6317962 11.0075645,31.6272726 C11.904588,31.6208443 12.8011355,31.625606 13.7214892,31.625606 L13.7214892,29.1342797 C12.9789689,29.1342797 12.2507325,29.1342797 11.5220199,29.1340416 C11.3294264,29.1340416 11.1356427,29.1426127 10.9440015,29.1292799 C10.3683638,29.0890435 9.99008077,28.6959644 10.0036504,28.1633672 C10.0174581,27.6350556 10.4174049,27.2541188 10.9928045,27.2486429 C11.8919707,27.2398337 12.7913748,27.246262 13.7307737,27.246262 L13.7307737,24.7539834 C12.8016116,24.7539834 11.8803055,24.7616021 10.9592376,24.7508883 C10.4383545,24.7451742 10.0626902,24.4009027 10.0107923,23.9190177 C9.95889444,23.4402278 10.2476656,23.0138168 10.7104611,22.9081068 C10.8587748,22.8742987 11.0161348,22.8683465 11.1694477,22.8673942 C11.8767346,22.8638229 12.5835453,22.8659657 13.2908322,22.8659657 L13.7233937,22.8659657 L13.7233937,20.3748775 C12.8061348,20.3748775 11.9095874,20.3779726 11.013278,20.373449 C10.5121542,20.370592 10.1588678,20.1232212 10.0403122,19.710381 C9.86533546,19.1018346 10.2783758,18.5206679 10.9230519,18.5066209 C11.7069953,18.4894787 12.4914147,18.501383 13.2758342,18.5009069 C13.4146253,18.5006688 13.5534163,18.5009069 13.7450575,18.5009069 C13.7450575,17.9197402 13.7445814,17.3719056 13.7450575,16.824309 C13.7464859,15.5022205 14.5037661,14.7451087 15.8278757,14.7422517 C16.3668517,14.7412993 16.9055895,14.7422517 17.4993201,14.7422517 C17.4993201,14.4510732 17.499082,14.1853698 17.4993201,13.9201426 C17.4997962,13.2518367 17.4895595,12.5828165 17.5045575,11.9145107 C17.5164607,11.3878656 17.9023617,11.0133572 18.4077707,11.0007387 C18.9300822,10.9881201 19.3545495,11.3626286 19.3655005,11.9011779 C19.3843075,12.8256637 19.3704998,13.7506257 19.3704998,14.7089197 L21.8632635,14.7089197 C21.8632635,13.9553792 21.8630254,13.2125526 21.8632635,12.4702021 C21.8632635,12.3030661 21.8582641,12.1356921 21.8654061,11.9687941 C21.8887363,11.3961986 22.2729709,11.0012148 22.8026623,11.0005006 C23.3352106,10.9995482 23.733967,11.3911988 23.7442038,11.9626039 C23.7580115,12.7337627 23.7480128,13.5053977 23.7482509,14.2767946 C23.7484889,14.4155984 23.7484889,14.5544023 23.7484889,14.7177289 L26.2405384,14.7177289 C26.2405384,14.2553669 26.2403004,13.7975286 26.2405384,13.3394521 C26.2407765,12.8637574 26.2291114,12.3875865 26.2445855,11.9123679 C26.2619641,11.375009 26.6726238,10.9919295 27.1930308,11.0001291 C27.6986778,11.0078812 28.0952917,11.3802469 28.1060046,11.9037968 C28.1231452,12.7006689 28.1119562,13.4980171 28.1126704,14.2951272 C28.1129084,14.4329787 28.1126704,14.5710682 28.1126704,14.7422517 C28.8656655,14.7422517 29.5703336,14.7429659 30.2752399,14.7410613 C30.3747505,14.7408232 30.474023,14.7274904 30.6149566,14.7172527 C30.6149566,13.9579982 30.6147185,13.2156477 30.6149566,12.4732972 C30.6149566,12.2933046 30.6099573,12.1130739 30.6180514,11.9333194 C30.6430481,11.3845324 31.0234737,11.0040719 31.5445949,11.0005006 C32.080714,10.9969293 32.4792325,11.3895322 32.4866124,11.9592707 C32.4973253,12.7949507 32.4894692,13.6306307 32.4904214,14.4663106 C32.4904214,14.5417837 32.4982775,14.6167806 32.5049433,14.7420136 C33.054394,14.7420136 33.5893229,14.7412993 34.1242518,14.7422517 C35.4902605,14.7443944 36.2411131,15.4996015 36.2415892,16.8707357 L36.2415892,18.4773364 L38.4755778,18.4773364 C38.6426984,18.4773364 38.8100571,18.4740032 38.9769397,18.4780506 C39.6044752,18.49305 40.0094214,18.8735106 39.9998334,19.4361065 C39.9903763,19.9787033 39.5830495,20.353926 38.9786061,20.3589258 C38.2072801,20.3653541 37.4359541,20.3605924 36.6646282,20.3603543 L36.2651575,20.3603543 L36.2651575,22.855728 L38.3067907,22.855728 C38.5253331,22.855728 38.7441135,22.8523948 38.9624178,22.8566804 C39.5704321,22.869537 39.9725215,23.237379 39.9799015,23.783309 C39.9879957,24.3482858 39.5856682,24.7356508 38.9564662,24.7437457 C38.2110891,24.7535072 37.465236,24.7463647 36.7193828,24.7466027 L36.2565872,24.7466027 L36.2565872,27.2386433 C36.727715,27.2386433 37.1743223,27.2384052 37.6211676,27.2388814 C38.1096741,27.2393575 38.5991328,27.2243581 39.0864489,27.246262 C39.6220919,27.2703086 39.9951376,27.6905295 39.9806157,28.2121747 C39.966808,28.7181063 39.5937624,29.1009477 39.0633567,29.1109473 C38.2791753,29.1257086 37.4947558,29.115471 36.7105744,29.1159471 L36.2682523,29.1159471 L36.2682523,31.625606 L37.6778267,31.625606 C38.1022941,31.625606 38.5265234,31.6217966 38.9507527,31.6260821 C39.577574,31.6327485 39.9870434,32.0122568 39.9810918,32.5746146 C39.9753783,33.1238778 39.5763837,33.4936245 38.967179,33.497672 C38.0820587,33.5031479 37.1964622,33.4991005 36.2415892,33.4991005 L36.2415892,34.0797909 C36.2415892,34.5040592 36.2492072,34.9285656 36.2396847,35.3528339 C36.2154022,36.4513602 35.4226505,37.2406135 34.3261297,37.256089 C33.7354939,37.264422 33.1443821,37.2577556 32.4899453,37.2577556 L32.4899453,37.6401209 C32.4897072,38.4246125 32.4944685,39.208866 32.4880408,39.9931195 C32.4832795,40.5945234 32.1026159,40.9978401 31.5548316,40.9999915 C31.0068092,41.0021257 30.6230508,40.6026183 30.6175753,39.9995478 C30.6094811,39.1024418 30.6154327,38.2050977 30.6154327,37.2720408" id="Fill-21" fill="#FFFFFF"></path>
            </g>
        </g>
    </g>
</svg>